<svg xmlns="http://www.w3.org/2000/svg" xmlns:xlink="http://www.w3.org/1999/xlink" width="1080" zoomAndPan="magnify" viewBox="0 0 810 809.999993" height="1080" preserveAspectRatio="xMidYMid meet" version="1.0"><defs><clipPath id="5e7646f684"><path d="M 300.40625 315.621094 L 509.59375 315.621094 L 509.59375 388.976562 L 300.40625 388.976562 Z M 300.40625 315.621094 " clip-rule="nonzero"/></clipPath><clipPath id="f5d7718954"><path d="M 300.40625 381.28125 L 462.289062 381.28125 L 462.289062 494.070312 L 300.40625 494.070312 Z M 300.40625 381.28125 " clip-rule="nonzero"/></clipPath></defs><g clip-path="url(#5e7646f684)"><path fill="#004aad" d="M 462.285156 315.621094 L 373.597656 315.621094 C 320.570312 315.621094 300.40625 348.390625 300.40625 388.816406 C 301.558594 387.492188 302.757812 386.199219 304.011719 384.945312 C 318.144531 370.816406 336.933594 363.03125 356.917969 363.03125 L 356.523438 362.929688 L 462.285156 362.929688 C 488.414062 362.929688 509.59375 341.75 509.59375 315.621094 L 462.285156 315.621094 " fill-opacity="1" fill-rule="nonzero"/></g><g clip-path="url(#f5d7718954)"><path fill="#004aad" d="M 412.03125 447.058594 L 357.101562 447.058594 C 351.9375 447.058594 347.617188 442.832031 347.714844 437.671875 C 347.8125 432.671875 351.894531 428.648438 356.917969 428.648438 L 414.976562 428.648438 C 441.105469 428.648438 462.285156 407.46875 462.285156 381.339844 L 356.917969 381.339844 C 325.707031 381.339844 300.40625 406.640625 300.40625 437.851562 C 300.40625 469.0625 325.707031 494.363281 356.917969 494.363281 L 364.722656 494.363281 C 390.851562 494.363281 412.03125 473.183594 412.03125 447.058594 " fill-opacity="1" fill-rule="nonzero"/></g></svg>